<svg id="Layer_1" data-name="Layer 1" xmlns="http://www.w3.org/2000/svg" viewBox="0 0 23.56 31.32"><rect x="1.95" y="8.31" width="19.66" height="19.66" style="fill:#f89838"/><path d="M24.74,4.35H19.88a3.88,3.88,0,1,0-7.76,0H7.26A2.91,2.91,0,0,0,4.35,7.26V28.62a2.91,2.91,0,0,0,2.91,2.92H24.74a2.91,2.91,0,0,0,2.91-2.92V7.26A2.91,2.91,0,0,0,24.74,4.35ZM16,2.89a1.46,1.46,0,1,1-1.46,1.46A1.46,1.46,0,0,1,16,2.89ZM23.36,17l-8.68,8.6a.73.73,0,0,1-1,0l-5-5.06a.73.73,0,0,1,0-1l1.72-1.71a.72.72,0,0,1,1,0l2.8,2.81,6.43-6.38a.73.73,0,0,1,1,0l1.71,1.73A.73.73,0,0,1,23.36,17Z" transform="translate(-4.22 -0.34)" style="fill:#113a60;stroke:#fff;stroke-miterlimit:10;stroke-width:0.25px"/></svg>