<svg id="Layer_1_copy" data-name="Layer 1 copy" xmlns="http://www.w3.org/2000/svg" viewBox="0 0 506.73 506.73"><rect width="506.73" height="506.73" rx="75.01" style="fill:#075a2f"/><path d="M61,82.3h68.6l37.65,70.27L134.6,210.3,61,82.3" transform="translate(-2.63 -2.63)" style="fill:#fff"/><path d="M450.52,415.75h-68.6l-37.65-70.28,32.63-57.73,73.62,128" transform="translate(-2.63 -2.63)" style="fill:#fff"/><path d="M292.09,339.58h0a28.63,28.63,0,0,1-10.32-39L408,82l65.46.32L331,329A28.63,28.63,0,0,1,292.09,339.58Z" transform="translate(-2.63 -2.63)" style="fill:#fff"/><path d="M218.92,161.61h0a28.54,28.54,0,0,1,10.41,38.86l-125.4,217.2-65.36-.5L180.06,172A28.53,28.53,0,0,1,218.92,161.61Z" transform="translate(-2.63 -2.63)" style="fill:#fff"/><path d="M233.59,141h62a64.22,64.22,0,0,1,64.22,64.22v68.45A87.76,87.76,0,0,1,272,361.39H214.85a64.22,64.22,0,0,1-64.22-64.22V223.91a83,83,0,0,1,83-83Z" transform="translate(157.14 -96.59) rotate(30)" style="fill:#fff"/><path d="M207.74,247.17h11.82a14.06,14.06,0,0,1,14.06,14.06v92.95a14.06,14.06,0,0,1-14.06,14.06h-2.42a23.46,23.46,0,0,1-23.46-23.46V261.22a14.06,14.06,0,0,1,14.06-14.06Z" transform="translate(-163.3 319.56) rotate(-57.44)" style="fill:#043c1f"/><path d="M291.33,169.33h17.94a0,0,0,0,1,0,0V347.6a14.06,14.06,0,0,1-14.06,14.06H283.4a14.06,14.06,0,0,1-14.06-14.06V191.32a22,22,0,0,1,22-22Z" transform="matrix(-0.84, -0.55, 0.55, -0.84, 383.87, 643.3)" style="fill:#075a2f"/></svg>